<svg width="20" height="19" viewBox="0 0 20 19" fill="none" xmlns="http://www.w3.org/2000/svg">
  <path fill="#376C8D" d="M2.828 18L2.808 18.02L2.787 18H0.987C0.724681 17.9984 0.473646 17.8931 0.288718 17.707C0.103791 17.521 -4.78851e-06 17.2693 1.6569e-10 17.007V0.993C0.00183004 0.730378 0.1069 0.479017 0.292513 0.293218C0.478125 0.107418 0.72938 0.00209465 0.992 0H19.008C19.2712 0.000265042 19.5235 0.105001 19.7095 0.291196C19.8955 0.477391 20 0.729813 20 0.993V17.007C19.9982 17.2696 19.8931 17.521 19.7075 17.7068C19.5219 17.8926 19.2706 17.9979 19.008 18H2.828ZM18 12V2H2V16L12 6L18 12ZM18 14.828L12 8.828L4.828 16H18V14.828ZM6 8C5.53728 8.0001 5.08885 7.83975 4.7311 7.54628C4.37336 7.25281 4.12844 6.84438 4.03808 6.39057C3.94772 5.93676 4.01751 5.46566 4.23555 5.05754C4.4536 4.64942 4.80641 4.32953 5.23387 4.15238C5.66133 3.97523 6.13699 3.95178 6.57981 4.08602C7.02262 4.22026 7.40519 4.50389 7.66233 4.88858C7.91946 5.27327 8.03525 5.73522 7.98997 6.19572C7.94469 6.65621 7.74114 7.08676 7.414 7.414C7.03901 7.7891 6.53039 7.99989 6 8Z" />
</svg>
