<svg width="72" height="72" viewBox="0 0 72 72" fill="none" xmlns="http://www.w3.org/2000/svg">
  <path opacity="0.3" d="M72 36C72 16.1177 55.8823 0 36 0C16.1177 0 0 16.1177 0 36C0 55.8823 16.1177 72 36 72C55.8823 72 72 55.8823 72 36Z" fill="white" />
  <path d="M36 56C31.3729 56.0001 26.8889 54.3957 23.3121 51.4604C19.7352 48.525 17.2868 44.4402 16.3841 39.9021C15.4813 35.3639 16.18 30.6531 18.3612 26.5723C20.5423 22.4915 24.071 19.2933 28.3458 17.5225C32.6207 15.7517 37.3773 15.518 41.8052 16.8611C46.2331 18.2043 50.0583 21.0411 52.629 24.8884C55.1997 28.7357 56.3569 33.3553 55.9034 37.9601C55.45 42.565 53.4138 46.8701 50.142 50.142C46.3913 53.8927 41.3043 55.9999 36 56V56ZM33.244 28.83C33.1236 28.7497 32.9837 28.7035 32.8392 28.6964C32.6947 28.6893 32.5509 28.7216 32.4233 28.7897C32.2956 28.8579 32.1889 28.9593 32.1143 29.0834C32.0398 29.2074 32.0003 29.3493 32 29.494V42.506C32.0003 42.6507 32.0398 42.7926 32.1143 42.9166C32.1889 43.0407 32.2956 43.1421 32.4233 43.2103C32.5509 43.2784 32.6947 43.3107 32.8392 43.3036C32.9837 43.2965 33.1236 43.2503 33.244 43.17L43 36.666C43.1097 36.593 43.1997 36.494 43.262 36.3778C43.3242 36.2616 43.3568 36.1318 43.3568 36C43.3568 35.8682 43.3242 35.7384 43.262 35.6222C43.1997 35.506 43.1097 35.407 43 35.334L33.24 28.834L33.244 28.83Z" fill="white" />
</svg>